<?xml version="1.0" encoding="UTF-8" standalone="no"?>
<svg width="430px" height="290px" viewBox="0 0 430 290" version="1.1" xmlns="http://www.w3.org/2000/svg" xmlns:xlink="http://www.w3.org/1999/xlink">
    <defs></defs>
    <g stroke="none" stroke-width="1" fill="none" fill-rule="evenodd">
        <g fill="#FFFFFF">
            <path d="M16.5656286,46 L6.84530109,46 L0,94.0105388 L6.77684808,94.0105388 L7.66673722,86.4767881 L15.2650214,86.4767881 L16.2233636,94.0105388 L23.4793827,94.0105388 L16.5656286,46 Z M11.4316528,55.7253873 L14.4435853,79.970367 L8.48817335,79.970367 L11.4316528,55.7253873 Z M77.0189046,94.0105388 L77.0189046,46.0684886 L70.4474156,46.0684886 L70.4474156,67.6424112 L70.5158686,75.6555825 L63.6705675,46.0684886 L55.1139411,46.0684886 L55.1139411,94.0105388 L61.6854302,94.0105388 L61.6854302,70.176491 L61.6169772,61.7523879 L69.0783553,94.0105388 L77.0189046,94.0105388 Z M122.412518,94.0105388 L122.412518,52.711887 L128.984007,52.711887 L128.984007,46.0684886 L108.516557,46.0684886 L108.516557,52.711887 L115.088046,52.711887 L115.088046,94.0105388 L122.412518,94.0105388 Z M167.874585,46.0684886 L160.550113,46.0684886 L160.550113,94.0105388 L167.874585,94.0105388 L167.874585,46.0684886 Z"></path>
            <path d="M55,122.410757 L55,170.33239 L62.3213529,170.33239 L62.3213529,149.520709 L70.6006398,149.520709 L70.6006398,142.88014 L62.3213529,142.88014 L62.3213529,129.051326 L70.9427591,129.051326 L70.9427591,122.410757 L55,122.410757 Z M119.955695,147.740763 C122.624225,146.645411 124.12955,144.591627 124.12955,140.34714 L124.12955,131.310489 C124.12955,125.354514 121.187324,122.410757 115.234449,122.410757 L103.19185,122.410757 L103.19185,170.33239 L110.513202,170.33239 L110.513202,151.095277 L113.797548,151.095277 C115.918687,151.095277 116.876621,152.05371 116.876621,154.175954 L116.876621,170.33239 L124.197974,170.33239 L124.197974,154.039035 C124.197974,150.410683 122.966345,148.562277 119.955695,147.740763 L119.955695,147.740763 Z M116.808197,131.652786 L116.808197,141.784789 C116.808197,143.770113 115.850263,144.728546 113.797548,144.728546 L110.513202,144.728546 L110.513202,128.914407 L114.071243,128.914407 C115.918687,128.914407 116.808197,129.80438 116.808197,131.652786 L116.808197,131.652786 Z M172.252976,122.342297 L162.536788,122.342297 L155.694402,170.33239 L162.468364,170.33239 L163.357874,162.801848 L170.952923,162.801848 L171.910857,170.33239 L179.163786,170.33239 L172.252976,122.342297 Z M167.121187,132.063543 L170.131836,156.298197 L164.178961,156.298197 L167.121187,132.063543 Z M224.892376,150.479142 L224.892376,161.501118 C224.892376,163.417983 224.002866,164.307956 222.086998,164.307956 L220.444826,164.307956 C218.528958,164.307956 217.639447,163.417983 217.639447,161.501118 L217.639447,131.242029 C217.639447,129.325164 218.528958,128.435191 220.444826,128.435191 L221.95015,128.435191 C223.797595,128.435191 224.687105,129.325164 224.687105,131.242029 L224.687105,138.567193 L231.87161,138.567193 L231.87161,130.831272 C231.87161,124.943757 228.997808,122 223.044932,122 L219.213196,122 C213.26032,122 210.318094,124.943757 210.318094,130.899732 L210.318094,161.843415 C210.318094,167.799389 213.26032,170.743147 219.213196,170.743147 L223.113356,170.743147 C229.066232,170.743147 232.008458,167.799389 232.008458,161.843415 L232.008458,144.18087 L221.06064,144.18087 L221.06064,150.479142 L224.892376,150.479142 Z M272.194716,122.410757 L264.873363,122.410757 L264.873363,170.33239 L272.194716,170.33239 L272.194716,122.410757 Z M305.264893,122.410757 L305.264893,170.33239 L320.660261,170.33239 L320.660261,163.691821 L312.586245,163.691821 L312.586245,122.410757 L305.264893,122.410757 Z M352.635656,122.410757 L352.635656,170.33239 L369.057382,170.33239 L369.057382,163.691821 L359.957009,163.691821 L359.957009,149.246871 L368.578415,149.246871 L368.578415,142.606302 L359.957009,142.606302 L359.957009,129.051326 L368.920534,129.051326 L368.920534,122.410757 L352.635656,122.410757 Z"></path>
            <path d="M155,251.325345 L166.014636,251.325345 C173.12968,251.325345 176.48196,247.90287 176.48196,240.852572 L176.48196,213.88347 C176.48196,206.833172 173.12968,203.410697 166.014636,203.410697 L155,203.410697 L155,251.325345 Z M162.320286,209.84495 L164.988427,209.84495 C167.86181,209.84495 169.161674,211.21394 169.161674,214.088819 L169.161674,240.647224 C169.161674,243.522102 167.86181,244.891092 164.988427,244.891092 L162.320286,244.891092 L162.320286,209.84495 Z M209.346247,203.410697 L209.346247,251.325345 L225.765579,251.325345 L225.765579,244.685744 L216.666533,244.685744 L216.666533,230.2429 L225.286682,230.2429 L225.286682,223.603299 L216.666533,223.603299 L216.666533,210.050298 L225.628752,210.050298 L225.628752,203.410697 L209.346247,203.410697 Z M274.707129,226.751976 L267.31843,221.344465 C265.950152,220.386172 265.266013,219.427879 265.266013,217.442844 L265.266013,212.103783 C265.266013,210.255647 266.155394,209.365803 268.002569,209.365803 L268.891949,209.365803 C270.739124,209.365803 271.628504,210.255647 271.628504,212.103783 L271.628504,220.523071 L278.811962,220.523071 L278.811962,211.829985 C278.811962,205.943328 275.870165,203 269.986571,203 L266.907946,203 C260.955938,203 258.014141,205.943328 258.014141,211.898435 L258.014141,218.469586 C258.014141,222.165859 258.971936,224.424693 262.255802,226.751976 L269.644502,232.159486 C271.012779,233.186228 271.696918,234.076072 271.696918,236.061107 L271.696918,242.632259 C271.696918,244.480395 270.807538,245.370239 268.891949,245.370239 L267.934155,245.370239 C266.018566,245.370239 265.129185,244.480395 265.129185,242.632259 L265.129185,232.775531 L258.014141,232.775531 L258.014141,242.906057 C258.014141,248.792714 260.887524,251.736042 266.839532,251.736042 L270.054985,251.736042 C276.006993,251.736042 278.94879,248.792714 278.94879,242.837607 L278.94879,235.034365 C278.94879,231.132743 277.922582,229.079259 274.707129,226.751976 L274.707129,226.751976 Z M318.928121,203.410697 L311.607835,203.410697 L311.607835,251.325345 L318.928121,251.325345 L318.928121,203.410697 Z M366.432979,231.474991 L366.432979,242.49536 C366.432979,244.411946 365.543599,245.301789 363.62801,245.301789 L361.986077,245.301789 C360.070488,245.301789 359.181108,244.411946 359.181108,242.49536 L359.181108,212.240682 C359.181108,210.324096 360.070488,209.434253 361.986077,209.434253 L363.491182,209.434253 C365.338357,209.434253 366.227738,210.324096 366.227738,212.240682 L366.227738,219.564778 L373.411196,219.564778 L373.411196,211.829985 C373.411196,205.943328 370.537813,203 364.585805,203 L360.754627,203 C354.802619,203 351.860822,205.943328 351.860822,211.898435 L351.860822,242.837607 C351.860822,248.792714 354.802619,251.736042 360.754627,251.736042 L364.654218,251.736042 C370.606226,251.736042 373.548024,248.792714 373.548024,242.837607 L373.548024,225.177637 L362.601802,225.177637 L362.601802,231.474991 L366.432979,231.474991 Z M428.23634,251.325345 L428.23634,203.410697 L421.668607,203.410697 L421.668607,224.972289 L421.737021,232.98088 L414.895632,203.410697 L406.343896,203.410697 L406.343896,251.325345 L412.911629,251.325345 L412.911629,227.50492 L412.843216,219.085632 L420.300329,251.325345 L428.23634,251.325345 Z"></path>
            <path d="M286.488,286 L286.488,279.934 C286.488,278.188 285.516,277.306 283.626,277.306 C282.42,277.306 281.448,277.612 280.458,278.044 L280.62,279.106 C281.556,278.656 282.546,278.35 283.554,278.35 C284.634,278.35 285.318,278.836 285.318,279.988 L285.318,280.546 C281.466,280.924 279.846,281.86 279.846,283.858 C279.846,285.37 280.908,286.18 282.384,286.18 C283.608,286.18 284.598,285.604 285.39,284.866 L285.588,286 L286.488,286 Z M285.318,283.894 C284.49,284.668 283.482,285.172 282.564,285.172 C281.664,285.172 281.034,284.704 281.034,283.786 C281.034,282.634 281.97,281.824 285.318,281.482 L285.318,283.894 Z M297.072,286 L296.892,285.01 C296.694,285.046 296.37,285.1 296.1,285.1 C295.182,285.1 294.84,284.722 294.84,283.858 L294.84,278.494 L296.964,278.494 L296.802,277.486 L294.84,277.486 L294.84,274.336 L293.67,274.534 L293.67,277.486 L292.356,277.486 L292.356,278.494 L293.67,278.494 L293.67,284.056 C293.67,285.622 294.552,286.144 295.884,286.144 C296.388,286.144 296.82,286.072 297.072,286 L297.072,286 Z M305.298,286 L305.298,279.934 C305.298,278.188 304.326,277.306 302.436,277.306 C301.23,277.306 300.258,277.612 299.268,278.044 L299.43,279.106 C300.366,278.656 301.356,278.35 302.364,278.35 C303.444,278.35 304.128,278.836 304.128,279.988 L304.128,280.546 C300.276,280.924 298.656,281.86 298.656,283.858 C298.656,285.37 299.718,286.18 301.194,286.18 C302.418,286.18 303.408,285.604 304.2,284.866 L304.398,286 L305.298,286 Z M304.128,283.894 C303.3,284.668 302.292,285.172 301.374,285.172 C300.474,285.172 299.844,284.704 299.844,283.786 C299.844,282.634 300.78,281.824 304.128,281.482 L304.128,283.894 Z M309.294,286 L309.294,273.076 L308.124,273.292 L308.124,286 L309.294,286 Z M318.924,285.892 L314.658,281.284 L318.618,277.486 L317.124,277.486 L313.398,281.14 L313.398,273.076 L312.21,273.292 L312.21,286 L313.398,286 L313.398,281.482 L317.628,286.126 L318.924,285.892 Z M331.902,281.5 C331.902,278.656 330.336,277.306 328.482,277.306 C327.294,277.306 326.466,277.936 325.854,278.602 L325.854,273.076 L324.666,273.292 L324.666,285.55 C325.62,285.874 326.574,286.108 327.762,286.108 C330.12,286.108 331.902,284.614 331.902,281.5 L331.902,281.5 Z M330.696,281.554 C330.696,283.984 329.508,285.082 327.816,285.082 C326.952,285.082 326.394,284.956 325.854,284.74 L325.854,279.844 C326.61,278.962 327.402,278.368 328.356,278.368 C329.706,278.368 330.696,279.484 330.696,281.554 L330.696,281.554 Z M340.722,277.486 L339.498,277.486 L336.978,284.632 L334.332,277.378 L333.18,277.594 L336.402,286.054 L336.006,287.08 C335.682,287.908 335.268,288.214 334.566,288.214 C334.296,288.214 334.044,288.178 333.864,288.142 L334.026,289.186 C334.152,289.204 334.314,289.24 334.494,289.24 C335.754,289.24 336.51,288.718 337.122,287.062 L340.722,277.486 Z M355.932,285.838 L349.614,279.358 L355.59,273.58 L354.042,273.58 L348.228,279.232 L348.228,273.58 L346.986,273.58 L346.986,286 L348.228,286 L348.228,279.592 L354.6,286.126 L355.932,285.838 Z M363.726,281.572 C363.726,279.214 362.61,277.306 360.288,277.306 C358.2,277.306 356.616,278.998 356.616,281.734 C356.616,284.668 358.218,286.18 360.45,286.18 C361.764,286.18 362.862,285.694 363.708,284.974 L363.528,283.894 C362.646,284.65 361.656,285.154 360.522,285.154 C358.812,285.154 357.84,283.912 357.804,281.824 L363.726,281.824 L363.726,281.572 L363.726,281.572 Z M362.502,280.888 L357.858,280.888 C358.092,279.25 358.956,278.26 360.288,278.26 C361.656,278.26 362.376,279.358 362.502,280.888 L362.502,280.888 Z M372.33,277.486 L371.106,277.486 L368.658,284.614 L366.138,277.378 L364.968,277.594 L368.064,286.072 L369.18,286.072 L372.33,277.486 Z M375.822,274.588 C375.822,274.12 375.444,273.724 374.976,273.724 C374.508,273.724 374.112,274.12 374.112,274.588 C374.112,275.056 374.508,275.452 374.976,275.452 C375.444,275.452 375.822,275.056 375.822,274.588 L375.822,274.588 Z M375.552,286 L375.552,277.486 L374.382,277.486 L374.382,286 L375.552,286 Z M385.164,286 L385.164,279.916 C385.164,278.278 384.318,277.306 382.626,277.306 C381.474,277.306 380.502,277.918 379.566,278.746 L379.368,277.486 L378.45,277.486 L378.45,286 L379.638,286 L379.638,279.844 C380.574,278.926 381.492,278.368 382.392,278.368 C383.472,278.368 383.976,279.034 383.976,280.132 L383.976,286 L385.164,286 Z M401.058,284.992 L400.878,283.804 C399.87,284.578 398.664,285.1 397.332,285.1 C394.632,285.1 392.922,282.958 392.922,279.772 C392.922,276.622 394.614,274.462 397.35,274.462 C398.61,274.462 399.69,274.966 400.662,275.668 L400.86,274.408 C399.924,273.76 398.772,273.346 397.368,273.346 C393.948,273.346 391.644,275.992 391.644,279.808 C391.644,283.642 393.912,286.234 397.278,286.234 C398.754,286.234 400.122,285.694 401.058,284.992 L401.058,284.992 Z M404.73,286 L404.73,273.076 L403.56,273.292 L403.56,286 L404.73,286 Z M413.748,286 L413.748,279.934 C413.748,278.188 412.776,277.306 410.886,277.306 C409.68,277.306 408.708,277.612 407.718,278.044 L407.88,279.106 C408.816,278.656 409.806,278.35 410.814,278.35 C411.894,278.35 412.578,278.836 412.578,279.988 L412.578,280.546 C408.726,280.924 407.106,281.86 407.106,283.858 C407.106,285.37 408.168,286.18 409.644,286.18 C410.868,286.18 411.858,285.604 412.65,284.866 L412.848,286 L413.748,286 Z M412.578,283.894 C411.75,284.668 410.742,285.172 409.824,285.172 C408.924,285.172 408.294,284.704 408.294,283.786 C408.294,282.634 409.23,281.824 412.578,281.482 L412.578,283.894 Z M420.822,278.422 L420.624,277.306 C419.22,277.342 418.23,278.278 417.6,279.232 L417.33,277.486 L416.448,277.486 L416.448,286 L417.636,286 L417.636,280.654 C418.212,279.52 419.418,278.512 420.822,278.422 L420.822,278.422 Z M429.354,285.892 L425.088,281.284 L429.048,277.486 L427.554,277.486 L423.828,281.14 L423.828,273.076 L422.64,273.292 L422.64,286 L423.828,286 L423.828,281.482 L428.058,286.126 L429.354,285.892 Z"></path>
        </g>
    </g>
</svg>