<?xml version="1.0" encoding="UTF-8" standalone="no"?>
<svg width="433px" height="197px" viewBox="0 0 433 197" version="1.1" xmlns="http://www.w3.org/2000/svg" xmlns:xlink="http://www.w3.org/1999/xlink">
    <defs></defs>
    <g stroke="none" stroke-width="1" fill="none" fill-rule="evenodd">
        <g fill="#FFFFFF">
            <path d="M17.1105915,2 L7.390264,2 L0.544962916,50.0105388 L7.32181099,50.0105388 L8.21170013,42.4767881 L15.8099843,42.4767881 L16.7683265,50.0105388 L24.0243456,50.0105388 L17.1105915,2 Z M11.9766157,11.7253873 L14.9885482,35.970367 L9.03313626,35.970367 L11.9766157,11.7253873 Z M77.5638675,50.0105388 L77.5638675,2.06848864 L70.9923785,2.06848864 L70.9923785,23.6424112 L71.0608315,31.6555825 L64.2155304,2.06848864 L55.658904,2.06848864 L55.658904,50.0105388 L62.2303931,50.0105388 L62.2303931,26.176491 L62.1619401,17.7523879 L69.6233183,50.0105388 L77.5638675,50.0105388 Z M122.957481,50.0105388 L122.957481,8.71188703 L129.52897,8.71188703 L129.52897,2.06848864 L109.06152,2.06848864 L109.06152,8.71188703 L115.633009,8.71188703 L115.633009,50.0105388 L122.957481,50.0105388 Z M168.419548,2.06848864 L161.095076,2.06848864 L161.095076,50.0105388 L168.419548,50.0105388 L168.419548,2.06848864 Z"></path>
            <path d="M57.5355585,73.7827757 L57.5355585,121.704409 L64.8569114,121.704409 L64.8569114,100.892728 L73.1361983,100.892728 L73.1361983,94.252159 L64.8569114,94.252159 L64.8569114,80.4233448 L73.4783176,80.4233448 L73.4783176,73.7827757 L57.5355585,73.7827757 Z M122.491253,99.1127818 C125.159784,98.0174301 126.665109,95.9636459 126.665109,91.7191584 L126.665109,82.6825075 C126.665109,76.7265331 123.722883,73.7827757 117.770007,73.7827757 L105.727408,73.7827757 L105.727408,121.704409 L113.048761,121.704409 L113.048761,102.467296 L116.333106,102.467296 C118.454246,102.467296 119.41218,103.425729 119.41218,105.547972 L119.41218,121.704409 L126.733533,121.704409 L126.733533,105.411054 C126.733533,101.782701 125.501903,99.9342955 122.491253,99.1127818 L122.491253,99.1127818 Z M119.343756,83.0248049 L119.343756,93.1568074 C119.343756,95.1421322 118.385822,96.1005648 116.333106,96.1005648 L113.048761,96.1005648 L113.048761,80.2864259 L116.606802,80.2864259 C118.454246,80.2864259 119.343756,81.1763991 119.343756,83.0248049 L119.343756,83.0248049 Z M174.788535,73.7143162 L165.072347,73.7143162 L158.229961,121.704409 L165.003923,121.704409 L165.893433,114.173866 L173.488481,114.173866 L174.446415,121.704409 L181.699344,121.704409 L174.788535,73.7143162 Z M169.656745,83.4355618 L172.667395,107.670216 L166.714519,107.670216 L169.656745,83.4355618 Z M227.427935,101.851161 L227.427935,112.873136 C227.427935,114.790002 226.538425,115.679975 224.622557,115.679975 L222.980384,115.679975 C221.064516,115.679975 220.175006,114.790002 220.175006,112.873136 L220.175006,82.6140481 C220.175006,80.6971827 221.064516,79.8072095 222.980384,79.8072095 L224.485709,79.8072095 C226.333153,79.8072095 227.222663,80.6971827 227.222663,82.6140481 L227.222663,89.939212 L234.407169,89.939212 L234.407169,82.2032912 C234.407169,76.3157763 231.533366,73.3720188 225.580491,73.3720188 L221.748755,73.3720188 C215.795879,73.3720188 212.853653,76.3157763 212.853653,82.2717507 L212.853653,113.215434 C212.853653,119.171408 215.795879,122.115166 221.748755,122.115166 L225.648915,122.115166 C231.60179,122.115166 234.544016,119.171408 234.544016,113.215434 L234.544016,95.552889 L223.596199,95.552889 L223.596199,101.851161 L227.427935,101.851161 Z M274.730274,73.7827757 L267.408921,73.7827757 L267.408921,121.704409 L274.730274,121.704409 L274.730274,73.7827757 Z M307.800451,73.7827757 L307.800451,121.704409 L323.195819,121.704409 L323.195819,115.06384 L315.121804,115.06384 L315.121804,73.7827757 L307.800451,73.7827757 Z M355.171214,73.7827757 L355.171214,121.704409 L371.59294,121.704409 L371.59294,115.06384 L362.492567,115.06384 L362.492567,100.61889 L371.113973,100.61889 L371.113973,93.9783211 L362.492567,93.9783211 L362.492567,80.4233448 L371.456093,80.4233448 L371.456093,73.7827757 L355.171214,73.7827757 Z"></path>
            <path d="M157.419548,195.801991 L168.434183,195.801991 C175.549227,195.801991 178.901508,192.379516 178.901508,185.329218 L178.901508,158.360116 C178.901508,151.309817 175.549227,147.887343 168.434183,147.887343 L157.419548,147.887343 L157.419548,195.801991 Z M164.739833,154.321595 L167.407975,154.321595 C170.281358,154.321595 171.581222,155.690585 171.581222,158.565464 L171.581222,185.123869 C171.581222,187.998748 170.281358,189.367738 167.407975,189.367738 L164.739833,189.367738 L164.739833,154.321595 Z M211.765795,147.887343 L211.765795,195.801991 L228.185127,195.801991 L228.185127,189.16239 L219.08608,189.16239 L219.08608,174.719546 L227.70623,174.719546 L227.70623,168.079944 L219.08608,168.079944 L219.08608,154.526944 L228.048299,154.526944 L228.048299,147.887343 L211.765795,147.887343 Z M277.126677,171.228621 L269.737977,165.821111 C268.3697,164.862818 267.685561,163.904525 267.685561,161.91949 L267.685561,156.580429 C267.685561,154.732292 268.574941,153.842449 270.422116,153.842449 L271.311497,153.842449 C273.158672,153.842449 274.048052,154.732292 274.048052,156.580429 L274.048052,164.999717 L281.23151,164.999717 L281.23151,156.306631 C281.23151,150.419974 278.289713,147.476646 272.406119,147.476646 L269.327494,147.476646 C263.375486,147.476646 260.433689,150.419974 260.433689,156.37508 L260.433689,162.946232 C260.433689,166.642505 261.391483,168.901338 264.67535,171.228621 L272.064049,176.636132 C273.432327,177.662874 274.116466,178.552717 274.116466,180.537753 L274.116466,187.108905 C274.116466,188.957041 273.227086,189.846885 271.311497,189.846885 L270.353702,189.846885 C268.438114,189.846885 267.548733,188.957041 267.548733,187.108905 L267.548733,177.252177 L260.433689,177.252177 L260.433689,187.382703 C260.433689,193.269359 263.307072,196.212688 269.25908,196.212688 L272.474533,196.212688 C278.426541,196.212688 281.368338,193.269359 281.368338,187.314253 L281.368338,179.51101 C281.368338,175.609389 280.34213,173.555904 277.126677,171.228621 L277.126677,171.228621 Z M321.347669,147.887343 L314.027383,147.887343 L314.027383,195.801991 L321.347669,195.801991 L321.347669,147.887343 Z M368.852527,175.951637 L368.852527,186.972006 C368.852527,188.888592 367.963147,189.778435 366.047558,189.778435 L364.405625,189.778435 C362.490036,189.778435 361.600655,188.888592 361.600655,186.972006 L361.600655,156.717328 C361.600655,154.800742 362.490036,153.910898 364.405625,153.910898 L365.91073,153.910898 C367.757905,153.910898 368.647286,154.800742 368.647286,156.717328 L368.647286,164.041424 L375.830743,164.041424 L375.830743,156.306631 C375.830743,150.419974 372.95736,147.476646 367.005352,147.476646 L363.174175,147.476646 C357.222167,147.476646 354.28037,150.419974 354.28037,156.37508 L354.28037,187.314253 C354.28037,193.269359 357.222167,196.212688 363.174175,196.212688 L367.073766,196.212688 C373.025774,196.212688 375.967571,193.269359 375.967571,187.314253 L375.967571,169.654283 L365.02135,169.654283 L365.02135,175.951637 L368.852527,175.951637 Z M430.655888,195.801991 L430.655888,147.887343 L424.088155,147.887343 L424.088155,169.448934 L424.156568,177.457526 L417.31518,147.887343 L408.763444,147.887343 L408.763444,195.801991 L415.331177,195.801991 L415.331177,171.981566 L415.262763,163.562278 L422.719877,195.801991 L430.655888,195.801991 Z"></path>
        </g>
    </g>
</svg>