<?xml version="1.0" encoding="UTF-8" standalone="no"?>
<svg width="1136px" height="1144px" viewBox="0 0 1136 1144" version="1.1" xmlns="http://www.w3.org/2000/svg" xmlns:xlink="http://www.w3.org/1999/xlink">
    <defs></defs>
    <g stroke="none" stroke-width="1" fill="none" fill-rule="evenodd" stroke-linecap="round" stroke-linejoin="round">
        <g stroke-width="10" stroke="#FFFFFF">
            <g transform="translate(22.000000, -19.000000)">
                <g>
                    <g stroke-opacity="0.25">
                        <g transform="translate(586.012885, 587.346800) rotate(277.000000) translate(-586.012885, -587.346800) translate(59.512885, 61.846800)">
                            <path d="M425.389922,377.051489 L402.641915,328.668344 L442.605581,306.494627 L416.25149,246.811487 L441.066583,232.066004 L413.372154,185.675491 L441.710347,163.080547"></path>
                            <path d="M510.44495,282.24499 C510.44495,282.24499 545.819914,142.621657 454.544178,78.3602204"></path>
                            <path d="M624.623795,157.019256 L592.024199,201.225763 L691.033282,258.904105 L675.362634,291.38148"></path>
                            <path d="M450.780439,901.538617 L418.180842,945.745125 L517.189926,1003.42347 L501.519278,1035.90084" transform="translate(467.685384, 968.719730) rotate(-48.000000) translate(-467.685384, -968.719730) "></path>
                            <path d="M240.167956,560.628713 L207.568359,604.835221 L306.577443,662.513563 L290.906795,694.990938"></path>
                            <path d="M759.576056,61.3097856 L805.698164,153.918269 L865.09474,98.2805536 L922.406126,134.062767"></path>
                            <path d="M310.238692,11.1791082 L277.639095,55.3856161 L376.648178,113.063958 L360.977531,145.541333"></path>
                            <path d="M376.648178,501.350252 L357.298627,536.415953 L308.189076,497.552184 L284.0116,532.564748 L233.526608,481.302225 L191.231168,521.092105"></path>
                            <path d="M1052.11672,694.064316 L1032.76716,729.130017 L983.657613,690.266248 L959.480137,725.278812 L908.995145,674.016289 L866.699705,713.806169"></path>
                            <path d="M660.461278,615.614348 L598.175564,715.035189"></path>
                            <path d="M176.245486,360.684653 L113.959771,460.105495"></path>
                            <path d="M605.376225,638.308236 L691.784152,687.298215"></path>
                            <path d="M121.160432,383.378541 L207.568359,432.368521"></path>
                            <path d="M630.93857,761.962676 L674.848473,762.584288 L674.848473,745.141252 L732.90185,743.344642 L737.615499,722.508009 L808.794887,704.228576"></path>
                            <path d="M536.609916,77.7386085 L580.519819,78.3602204 L580.519819,60.9171843 L638.573196,59.1205744 L643.286845,38.2839416 L714.466233,20.004509"></path>
                            <path d="M626.70727,581.319673 C626.70727,581.319673 724.31044,558.875282 738.317509,471.812659"></path>
                            <path d="M151.763239,783.883524 C151.763239,783.883524 249.36641,761.439132 263.373479,674.37651" transform="translate(207.568359, 729.130017) rotate(290.000000) translate(-207.568359, -729.130017) "></path>
                            <path d="M783.023993,901.971434 C783.023993,901.971434 880.627164,879.527042 894.634232,792.46442" transform="translate(838.829113, 847.217927) rotate(290.000000) translate(-838.829113, -847.217927) "></path>
                            <path d="M170.364272,369.286863 C170.364272,369.286863 267.967443,346.842471 281.974512,259.779849" transform="translate(226.169392, 314.533356) rotate(-47.000000) translate(-226.169392, -314.533356) "></path>
                            <path d="M596.849059,553.5827 L592.864165,492.339536 L663.459128,487.852913 L655.883034,439.476617 L727.401665,434.709896 L717.753628,366.933623 L789.802232,366.628291"></path>
                            <path d="M575.337998,1034.17234 L571.353103,972.929172 L641.948067,968.442549 L634.371973,920.066253 L705.890604,915.299532 L696.242567,847.523259 L768.291171,847.217927"></path>
                            <path d="M105.610539,166.372652 L102.939035,125.314763 L150.266443,122.306897 L145.187371,89.875055 L193.134013,86.679408 L186.665895,41.2416724 L234.967835,41.036975" transform="translate(168.953435, 103.704814) rotate(151.000000) translate(-168.953435, -103.704814) "></path>
                            <path d="M5.98208363,837.468827 L1.99718936,776.225663 L72.5921528,771.73904 L65.0160587,723.362744 L136.53469,718.596023 L126.886653,650.81975 L198.935257,650.514418" transform="translate(100.466223, 743.991622) scale(-1, -1) rotate(273.000000) translate(-100.466223, -743.991622) "></path>
                            <ellipse cx="726.976469" cy="604.553892" rx="22.8620974" ry="22.873998"></ellipse>
                            <ellipse cx="323.312139" cy="824.343929" rx="22.8620974" ry="22.873998"></ellipse>
                            <ellipse cx="121.160432" cy="566.804478" rx="22.8620974" ry="22.873998"></ellipse>
                            <ellipse cx="331.772915" cy="381.305611" rx="31.3228737" ry="31.3391784"></ellipse>
                            <ellipse cx="928.085337" cy="440.473481" rx="31.3228737" ry="31.3391784"></ellipse>
                            <path d="M358.236075,667.70959 L332.689424,742.226031 L398.779483,723.463831 L388.393683,884.71145"></path>
                            <path d="M23.1716686,267.000757 L23.1716686,311.021013 L77.5366562,287.66446 L70.1508563,407.912079"></path>
                            <path d="M859.518122,178.844605 L859.518122,222.864862 L913.88311,199.508309 L903.49731,360.755928" transform="translate(886.700616, 269.800267) rotate(17.000000) translate(-886.700616, -269.800267) "></path>
                            <path d="M544.312645,690.90042 C544.312645,690.90042 504.448648,808.825268 606.096291,879.655931"></path>
                            <path d="M94.1199733,102.625969 C94.1199733,102.625969 54.2559764,220.550817 155.903619,291.38148"></path>
                            <path d="M823.698276,449.552724 C823.698276,449.552724 783.83428,567.477572 885.481922,638.308236"></path>
                            <path d="M367.113369,259.874805 L270.98455,162.975506"></path>
                            <path d="M976.149746,623.465465 L880.020927,526.566166"></path>
                            <path d="M350.911882,285.810677 L260.903625,205.481519"></path>
                            <path d="M723.436255,116.314346 L657.190177,193.0413"></path>
                            <path d="M151.419931,856.150842 L85.1738538,932.877796"></path>
                            <path d="M648.549384,120.997211 L725.596453,190.519757"></path>
                            <path d="M76.5330611,860.833708 L153.58013,930.356253"></path>
                            <path d="M850.738735,264.740057 L760.010411,247.4472 L760.010411,324.174154"></path>
                            <path d="M327.143637,909.285633 L236.415313,891.992776 L236.415313,968.71973"></path>
                            <path d="M495.792514,17.7074305 L405.06419,0.414573099 L405.06419,77.141527"></path>
                            <path d="M104.652973,516.374227 L13.924649,499.08137 L13.924649,575.808323" transform="translate(59.288811, 537.444847) rotate(-34.000000) translate(-59.288811, -537.444847) "></path>
                        </g>
                    </g>
                    <path d="M431,409 L447,453" stroke-opacity="0.252632473"></path>
                    <path d="M635,760 L647,798" stroke-opacity="0.252632473"></path>
                    <path d="M815,699 L955,658" stroke-opacity="0.252632473"></path>
                </g>
            </g>
        </g>
    </g>
</svg>