<?xml version="1.0" encoding="UTF-8" standalone="no"?>
<svg width="21px" height="17px" viewBox="0 0 21 17" version="1.1" xmlns="http://www.w3.org/2000/svg" xmlns:xlink="http://www.w3.org/1999/xlink">
    <defs></defs>
    <g stroke="none" stroke-width="1" fill="none" fill-rule="evenodd">
        <g transform="translate(-802.000000, -417.000000)" fill="#FFFFFF">
            <g transform="translate(802.000000, 417.000000)">
                <path d="M21,2.01236698 C20.227408,2.35375773 19.3969619,2.58438497 18.5255653,2.6881413 C19.4150226,2.15701747 20.0982578,1.31598703 20.4198734,0.313779153 C19.5873273,0.805678614 18.6653205,1.16275838 17.6838848,1.35521018 C16.8980626,0.521082036 15.7783411,-2.13162821e-14 14.5391291,-2.13162821e-14 C12.1598257,-2.13162821e-14 10.2306575,1.92147484 10.2306575,4.29154974 C10.2306575,4.6279202 10.2687722,4.95550515 10.3422723,5.26959777 C6.76155567,5.09063952 3.58698093,3.38200989 1.46198744,0.785492556 C1.09112687,1.41932501 0.878606213,2.15649543 0.878606213,2.94303449 C0.878606213,4.43201786 1.63922798,5.74559964 2.79527892,6.51519339 C2.08904851,6.49291554 1.42471269,6.29983682 0.843851389,5.97842355 C0.843361608,5.99630804 0.843361608,6.01429741 0.843361608,6.0323929 C0.843361608,8.11169953 2.32848505,9.84616244 4.29944258,10.240687 C3.93792703,10.3387949 3.55730146,10.3911958 3.16438975,10.3911958 C2.88676992,10.3911958 2.61692046,10.3642111 2.35378956,10.3142155 C2.90210005,12.0191836 4.49316791,13.2599687 6.378551,13.2944838 C4.90403375,14.4456331 3.04637102,15.1317627 1.02774193,15.1317627 C0.67998063,15.1317627 0.33705102,15.1113668 1.11910481e-13,15.0717253 C1.90669833,16.2895008 4.17134172,17 6.60440593,17 C14.5290837,17 18.8627559,10.4605419 18.8627559,4.78909763 C18.8627559,4.60302731 18.858556,4.41800228 18.8502616,4.23381517 C19.691942,3.6288494 20.4223235,2.87306023 20.9999302,2.01236698 L21,2.01236698 Z"></path>
            </g>
        </g>
    </g>
</svg>