<?xml version="1.0" encoding="UTF-8" standalone="no"?>
<svg width="24px" height="18px" viewBox="0 0 24 18" version="1.1" xmlns="http://www.w3.org/2000/svg" xmlns:xlink="http://www.w3.org/1999/xlink">
    <defs></defs>
    <g stroke="none" stroke-width="1" fill="none" fill-rule="evenodd">
        <g transform="translate(-657.000000, -418.000000)" fill="#FFFFFF">
            <g transform="translate(657.000000, 416.000000)">
                <g transform="translate(0.000000, 2.000000)">
                    <path d="M22,9.75777452 L22,1.99188419 C22,0.893397331 21.1085295,0 20.008845,0 L1.991155,0 C0.889673948,0 0,0.891796927 0,1.99188419 L0,13.0081158 C0,14.1066027 0.891470458,15 1.991155,15 L15.2560586,15 C15.0902313,14.5308316 15,14.0259531 15,13.5 L1.991155,13.5 C1.72075922,13.5 1.5,13.2790374 1.5,13.0081158 L1.5,1.99188419 C1.5,1.71927087 1.719054,1.5 1.991155,1.5 L20.008845,1.5 C20.2792408,1.5 20.5,1.72096263 20.5,1.99188419 L20.5,9.11150821 C21.0440253,9.23495409 21.5506143,9.45696523 22,9.75777452 L22,9.75777452 Z M19.5,18 C17.0147186,18 15,15.9852814 15,13.5 C15,11.0147186 17.0147186,9 19.5,9 C21.9852814,9 24,11.0147186 24,13.5 C24,15.9852814 21.9852814,18 19.5,18 Z M19.5,16.5 C21.1568542,16.5 22.5,15.1568542 22.5,13.5 C22.5,11.8431458 21.1568542,10.5 19.5,10.5 C17.8431458,10.5 16.5,11.8431458 16.5,13.5 C16.5,15.1568542 17.8431458,16.5 19.5,16.5 Z"></path>
                </g>
            </g>
        </g>
    </g>
</svg>